<svg width="203" height="37" viewBox="0 0 203 37" fill="none" xmlns="http://www.w3.org/2000/svg">
<g clip-path="url(#clip0_818_254)">
<path d="M22.3775 14.7995C25.0053 13.8855 26.3763 12.0575 26.3763 9.5059C26.3763 6.00224 23.9389 3.41258 19.6736 2.87942C18.3407 2.72708 17.6552 2.72708 16.2842 2.72708H6.26832V29.0045H16.2461C17.8075 29.0045 18.6835 29.0045 19.9783 28.8522C23.52 28.3952 27.3284 25.9959 27.3284 21.1213C27.3284 17.808 25.7289 15.6754 22.3775 14.7995ZM12.2474 7.37324H15.713C16.3223 7.37324 17.0078 7.41132 17.541 7.48749C19.1024 7.71599 20.1306 8.55382 20.1306 10.3056C20.1306 12.0575 19.2166 12.9334 17.579 13.2C17.0459 13.2761 16.4365 13.3142 15.8272 13.3142H12.2474V7.37324ZM18.1503 24.2822C17.6552 24.3203 17.0459 24.3203 16.4365 24.3203H12.2474V17.6938H16.208C16.8174 17.6938 17.4267 17.6938 18.036 17.77C19.7117 17.9223 21.0827 18.9125 21.0827 21.0451C21.0827 23.0254 19.7117 24.1679 18.1503 24.2822ZM30.9278 3.4195C29.1967 3.4195 28.0542 4.49276 28.0542 6.15457C28.0542 7.85101 29.1967 8.92426 30.9278 8.92426C32.6588 8.92426 33.8359 7.85101 33.8359 6.15457C33.8359 4.49276 32.6588 3.4195 30.9278 3.4195ZM33.6628 29.0045V10.5515H28.2273V29.0045H33.6628ZM38.3494 3.4195C36.4106 3.4195 35.4412 4.28503 35.4412 6.15457C35.4412 8.05874 36.4106 8.92426 38.3494 8.92426C40.2536 8.92426 41.223 8.05874 41.223 6.15457C41.223 4.28503 40.2536 3.4195 38.3494 3.4195ZM41.0498 10.5515H35.6143V29.0391C35.6143 29.5585 35.6143 30.1816 35.5451 30.6663C35.4066 32.1897 34.4372 32.6051 32.2561 32.3974V36.1711C32.8446 36.2403 33.5024 36.275 34.1949 36.275C38.9033 36.275 40.7383 34.3708 40.9806 31.2203C41.0152 30.5971 41.0498 29.6969 41.0498 28.9699V10.5515ZM51.5584 10.0668C45.4305 10.0668 41.8299 14.0136 41.8299 19.7607C41.8299 25.5078 45.4305 29.4892 51.5584 29.4892C57.6518 29.4892 61.287 25.5078 61.287 19.7607C61.287 14.0136 57.6518 10.0668 51.5584 10.0668ZM51.5584 25.7501C48.9619 25.7501 47.4039 23.6036 47.4039 19.7607C47.4039 15.9177 48.9619 13.8058 51.5584 13.8058C54.1204 13.8058 55.6784 15.9177 55.6784 19.7607C55.6784 23.6036 54.1204 25.7501 51.5584 25.7501ZM79.7498 10.5515H74.3489V20.4185C74.3489 23.8113 72.8948 25.7155 70.679 25.7155C68.5671 25.7155 67.5978 24.6076 67.3554 22.7381C67.2515 21.8033 67.2169 20.7993 67.2169 20.2108V10.5515H61.816V21.3879C61.816 22.8766 61.8506 23.8806 61.9891 24.8154C62.4046 27.3427 64.6896 29.4892 68.4979 29.4892C70.229 29.4892 71.5446 29.143 72.7909 28.3121L74.3489 25.854V29.0045H79.7498V10.5515Z" fill="#08688E"/>
<path d="M89.1068 7.37324H102.245V2.72708H83.1277V29.0045H89.1068V18.1508H100.989V13.5046H89.1068V7.37324ZM112.774 10.0668C111.7 10.0668 110.35 10.5515 109.415 11.5208L108.03 14.0828V10.5515H102.595V29.0045H108.03V21.284C108.03 16.0562 109.865 14.3252 114.158 14.6021V10.2052C113.743 10.136 113.362 10.0668 112.774 10.0668ZM131.556 19.4491C131.556 14.5329 128.509 10.0668 122.624 10.0668C116.773 10.0668 113.068 14.2905 113.068 19.8299C113.068 26.3387 117.119 29.4892 122.277 29.4892C126.778 29.4892 130.24 27.2388 131.244 22.9804H125.878C125.566 24.7115 124.285 25.7501 122.381 25.7501C120.339 25.7501 118.815 24.7115 118.504 21.1801H131.452C131.521 20.5223 131.556 19.9338 131.556 19.4491ZM122.381 13.8058C124.389 13.8058 125.601 15.1561 125.913 17.7527H118.642C119.092 15.0176 120.442 13.8058 122.381 13.8058ZM150.282 15.1561C149.867 11.9363 147.616 10.0668 143.739 10.0668C142.008 10.0668 140.692 10.413 139.446 11.2439L137.922 13.4596V10.5515H132.487V29.0045H137.922V20.4531C137.922 15.7446 139.515 13.8058 141.661 13.8058C143.773 13.8058 144.812 14.983 144.95 16.8525C145.02 17.7873 145.02 18.722 145.02 19.4145V29.0045H150.455V18.5836C150.455 17.0948 150.42 16.0908 150.282 15.1561ZM160.56 10.0668C155.332 10.0668 151.108 13.5981 151.108 19.9338C151.108 26.2002 154.986 29.4892 160.11 29.4892C164.922 29.4892 168.453 27.1004 169.18 22.4611H163.814C163.399 24.6076 162.083 25.7501 160.421 25.7501C158.171 25.7501 156.682 23.8806 156.682 19.5876C156.682 15.6754 158.136 13.8058 160.421 13.8058C162.221 13.8058 163.502 14.8445 163.883 17.3718H169.18C168.903 13.2519 165.718 10.0668 160.56 10.0668ZM187.815 15.1561C187.399 11.9363 185.149 10.0668 181.271 10.0668C179.54 10.0668 178.225 10.413 176.978 11.2439L175.455 13.4596V3.38488H170.02V29.0045H175.455V20.4531C175.455 15.7446 177.048 13.8405 179.194 13.8058C181.306 13.8058 182.345 14.983 182.483 16.8525C182.552 17.7873 182.552 18.722 182.552 19.4145V29.0045H187.988V18.5836C187.988 17.0948 187.953 16.0908 187.815 15.1561Z" fill="#DB5C54"/>
</g>
<defs>
<clipPath id="clip0_818_254">
<rect width="203" height="37" fill="white"/>
</clipPath>
</defs>
</svg>
